# xmcd
#
# Track frame offsets:
#	150
#	11743
#	20047
#	28827
#	38013
#	47222
#	57781
#	70240
#	79281
#	94907
#	106466
#	119311
#	129961
#	140282
#	148245
#	163044
#	173833
#	181145
#	192340
#	209558
#	223066
#	238689
#
# Disc length: 3320 seconds
#
# Revision: 5
# Processed by: cddbd v1.4PL0 Copyright (c) Steve Scherf et al.
# Submitted via: AudioConverter v4.0 Copyright (c) Dennis Rebentrost
#
DISCID=470cf616
DTITLE=Die sch_nsten Lieder der FDJ - Unser Zeichen ist die Sonne
DYEAR=1900
DGENRE=
TTITLE0=Sag mir, wo du stehst
TTITLE1=Aufbaulied der FDJ (Keiner plagt sich gerne)
TTITLE2=Jugend erwach (Bau auf, Bau auf)
TTITLE3=Du hast ja ein Ziel vor den Augen
TTITLE4=Lied von der blauen Fahne (Auf den Stra_en, auf den Bahnen..)
TTITLE5=Eisenbahnerlied (Es rollen die R_der...)
TTITLE6=Wir singen heute schon die Lieder von morgen
TTITLE7=Lied der Jugendbrigaden (Wir sorgen f_r Wasser in Sosa...)
TTITLE8=Lied - ber die ruhlose Jugend
TTITLE9=Carpe Diem (Nutze den Tag)
TTITLE10=Oktobersong
TTITLE11=Was machen wir zu Pfingsten
TTITLE12=Partisanen vom Amur
TTITLE13=Bandiera Rossa
TTITLE14=Komsomozenlied
TTITLE15=Orenburg Lied
TTITLE16=Drushba! - Freundschaft!
TTITLE17=Wir treffen uns in jedem Fall
TTITLE18=Wir sind - berall
TTITLE19=Fahnenlied
TTITLE20=Weltjugendlied
TTITLE21=Vorw_rts, freie deutsche Jugend
EXTD=
EXTT0=
EXTT1=
EXTT2=
EXTT3=
EXTT4=
EXTT5=
EXTT6=
EXTT7=
EXTT8=
EXTT9=
EXTT10=
EXTT11=
EXTT12=
EXTT13=
EXTT14=
EXTT15=
EXTT16=
EXTT17=
EXTT18=
EXTT19=
EXTT20=
EXTT21=
PLAYORDER=
